<svg width="42" height="42" viewBox="0 0 42 42" fill="none" xmlns="http://www.w3.org/2000/svg">
<path d="M41.3714 26.0802C38.5663 37.3301 27.1706 44.1767 15.918 41.3713C4.67002 38.5665 -2.17737 27.1715 0.629057 15.9222C3.43286 4.67087 14.8285 -2.17637 26.0779 0.628416C37.3298 3.4332 44.1765 14.8295 41.3714 26.0802Z" fill="#33363D"/>
<path fill-rule="evenodd" clip-rule="evenodd" d="M30.6115 18.2604C31.0679 15.3183 28.745 13.7367 25.5689 12.6816L26.5992 8.69608L24.0836 8.09149L23.0805 11.9719C22.4192 11.813 21.74 11.6631 21.0651 11.5145L22.0753 7.6085L19.5612 7.00391L18.5301 10.988C17.9827 10.8678 17.4454 10.7489 16.9238 10.6239L16.9266 10.6114L13.4574 9.77606L12.7882 12.3672C12.7882 12.3672 14.6547 12.7797 14.6153 12.8053C15.6341 13.0505 15.8182 13.7007 15.7874 14.2162L14.6138 18.7565C14.6841 18.7738 14.775 18.7987 14.8754 18.8374L14.7901 18.8169C14.7318 18.8028 14.6713 18.7881 14.6095 18.7738L12.9645 25.1342C12.8398 25.4326 12.5239 25.8804 11.8117 25.7104C11.8367 25.7457 9.98321 25.2703 9.98321 25.2703L8.73438 28.0473L12.008 28.8343C12.3735 28.9226 12.7347 29.0134 13.0921 29.1033C13.3301 29.1632 13.5665 29.2226 13.8013 29.2806L12.7603 33.3117L15.273 33.9163L16.304 29.9281C16.9904 30.1077 17.6567 30.2736 18.3087 30.4297L17.2813 34.3993L19.7969 35.0039L20.8379 30.9804C25.1275 31.7633 28.3531 31.4475 29.7109 27.7059C30.8049 24.6933 29.6564 22.9555 27.3995 21.8224C29.0431 21.4568 30.2812 20.4142 30.6115 18.2604ZM24.8673 26.0328C24.1541 28.7967 19.668 27.6541 17.6154 27.1312C17.4307 27.0842 17.2658 27.0422 17.125 27.0084L18.5064 21.668C18.6778 21.7092 18.8872 21.7545 19.1244 21.8059C21.2474 22.2653 25.5981 23.2068 24.8673 26.0328ZM19.5455 19.3307C21.2568 19.7711 24.9897 20.7318 25.6399 18.2197C26.3039 15.6503 22.6758 14.8757 20.904 14.4974C20.7046 14.4549 20.5288 14.4173 20.3852 14.3828L19.1328 19.2265C19.2511 19.2549 19.3899 19.2906 19.5455 19.3307Z" fill="#D3D3D3"/>
</svg>
