<svg width="79" height="79" viewBox="0 0 79 79" fill="none" xmlns="http://www.w3.org/2000/svg">
<path d="M64.7976 17.3934C60.1448 15.3599 55.1554 13.8617 49.9387 13.0036C49.8437 12.987 49.7488 13.0284 49.6998 13.1112C49.0582 14.1983 48.3474 15.6165 47.8497 16.7312C42.2387 15.931 36.6566 15.931 31.1607 16.7312C30.6629 15.5917 29.9263 14.1983 29.2817 13.1112C29.2328 13.0312 29.1379 12.9898 29.0429 13.0036C23.8291 13.8589 18.8397 15.3571 14.184 17.3934C14.1437 17.41 14.1092 17.4376 14.0862 17.4734C4.6224 30.9408 2.02986 44.0772 3.30167 57.0507C3.30743 57.1142 3.34483 57.1749 3.39663 57.2135C9.64059 61.5812 15.6889 64.2328 21.625 65.9903C21.72 66.018 21.8206 65.9849 21.8811 65.9103C23.2853 64.0838 24.537 62.1579 25.6102 60.1327C25.6735 60.0141 25.613 59.8733 25.4836 59.8264C23.4982 59.109 21.6077 58.2344 19.7892 57.2411C19.6453 57.1611 19.6338 56.9652 19.7661 56.8713C20.1488 56.5982 20.5316 56.314 20.897 56.027C20.9631 55.9746 21.0553 55.9636 21.133 55.9967C33.0799 61.1922 46.0139 61.1922 57.8198 55.9967C57.8975 55.9608 57.9897 55.9719 58.0587 56.0243C58.4242 56.3112 58.8069 56.5982 59.1924 56.8713C59.3247 56.9652 59.3161 57.1611 59.1723 57.2411C57.3537 58.2537 55.4632 59.109 53.475 59.8237C53.3455 59.8706 53.288 60.0141 53.3513 60.1327C54.4475 62.1551 55.6992 64.081 57.0775 65.9076C57.1351 65.9849 57.2386 66.018 57.3336 65.9903C63.2984 64.2328 69.3467 61.5812 75.5907 57.2135C75.6454 57.1749 75.6799 57.117 75.6857 57.0535C77.2078 42.0547 73.1362 29.026 64.8925 17.4762C64.8723 17.4376 64.8379 17.41 64.7976 17.3934ZM27.3942 49.1512C23.7974 49.1512 20.8337 46.0059 20.8337 42.143C20.8337 38.2802 23.7399 35.1348 27.3942 35.1348C31.0772 35.1348 34.0123 38.3078 33.9547 42.143C33.9547 46.0059 31.0485 49.1512 27.3942 49.1512ZM51.6507 49.1512C48.054 49.1512 45.0903 46.0059 45.0903 42.143C45.0903 38.2802 47.9964 35.1348 51.6507 35.1348C55.3338 35.1348 58.2687 38.3078 58.2112 42.143C58.2112 46.0059 55.3338 49.1512 51.6507 49.1512Z" fill="#828BFC"/>
</svg>
