<svg width="28" height="28" viewBox="0 0 28 28" fill="none" xmlns="http://www.w3.org/2000/svg">
<path fill-rule="evenodd" clip-rule="evenodd" d="M0 14C0 6.26801 6.26801 0 14 0C21.732 0 28 6.26801 28 14C28 21.732 21.732 28 14 28C6.26801 28 0 21.732 0 14ZM9.74792 24.6394C8.6757 24.2105 7.68345 23.6242 6.79972 22.9091C7.36486 22.4517 7.97422 22.047 8.6204 21.7026C8.79854 22.3304 8.99854 22.9224 9.21848 23.4722C9.38126 23.8792 9.55766 24.2698 9.74792 24.6394ZM11.0008 20.76C11.1729 21.4005 11.368 21.9922 11.5819 22.5269C12.007 23.5897 12.4814 24.3644 12.9431 24.8526C13.4022 25.3381 13.7598 25.4545 14 25.4545C14.2402 25.4545 14.5978 25.3381 15.0569 24.8526C15.5186 24.3644 15.993 23.5897 16.4181 22.5269C16.632 21.9922 16.8271 21.4005 16.9992 20.76C16.0434 20.5015 15.0379 20.3636 14 20.3636C12.9621 20.3636 11.9566 20.5015 11.0008 20.76ZM17.5122 18.2626C16.3898 17.9726 15.2128 17.8182 14 17.8182C12.7872 17.8182 11.6102 17.9726 10.4878 18.2627C10.3474 17.3223 10.2513 16.3201 10.208 15.2727H17.792C17.7487 16.3201 17.6526 17.3222 17.5122 18.2626ZM19.3796 21.7026C19.2015 22.3304 19.0015 22.9224 18.7815 23.4722C18.6187 23.8792 18.4423 24.2698 18.2521 24.6394C19.3243 24.2105 20.3166 23.6242 21.2003 22.909C20.6352 22.4516 20.0258 22.047 19.3796 21.7026ZM22.9964 21.091C22.0747 20.3173 21.0516 19.6601 19.9498 19.1421C20.1547 17.9242 20.2879 16.6239 20.3395 15.2727H25.3846C25.1433 17.4558 24.2885 19.454 22.9964 21.091ZM25.3846 12.7273C25.1433 10.5442 24.2885 8.54604 22.9964 6.909C22.0747 7.68265 21.0516 8.33992 19.9498 8.85791C20.1547 10.0758 20.2879 11.3761 20.3395 12.7273H25.3846ZM17.792 12.7273C17.7487 11.6799 17.6526 10.6778 17.5122 9.73736C16.3898 10.0274 15.2128 10.1818 14 10.1818C12.7872 10.1818 11.6102 10.0274 10.4878 9.73735C10.3474 10.6777 10.2513 11.6799 10.208 12.7273H17.792ZM7.66055 12.7273C7.71214 11.376 7.84528 10.0757 8.05018 8.85789C6.94844 8.33989 5.92528 7.68262 5.00362 6.90897C3.71152 8.54601 2.85669 10.5442 2.61536 12.7273H7.66055ZM2.61536 15.2727C2.85669 17.4558 3.71152 19.454 5.00362 21.091C5.92528 20.3174 6.94844 19.6601 8.05018 19.1421C7.84528 17.9243 7.71214 16.624 7.66055 15.2727H2.61536ZM6.79972 5.09093C7.36486 5.54834 7.97422 5.95296 8.6204 6.29739C8.79854 5.66957 8.99854 5.07762 9.21848 4.52778C9.38126 4.12083 9.55766 3.73015 9.74792 3.36062C8.6757 3.78953 7.68345 4.37582 6.79972 5.09093ZM14 2.54545C13.7598 2.54545 13.4022 2.66191 12.9431 3.1474C12.4814 3.63558 12.007 4.41029 11.5819 5.47314C11.368 6.0078 11.1729 6.5995 11.0008 7.23995C11.9566 7.49849 12.9621 7.63636 14 7.63636C15.0379 7.63636 16.0434 7.49849 16.9992 7.23996C16.8271 6.59951 16.632 6.00781 16.4181 5.47314C15.993 4.41029 15.5186 3.63558 15.0569 3.1474C14.5978 2.66191 14.2402 2.54545 14 2.54545ZM19.3796 6.29741C20.0258 5.95299 20.6352 5.54837 21.2003 5.09096C20.3166 4.37583 19.3243 3.78953 18.2521 3.36062C18.4423 3.73015 18.6187 4.12083 18.7815 4.52778C19.0015 5.07763 19.2015 5.66959 19.3796 6.29741Z" fill="#C0C0C0"/>
</svg>
