<svg width="31" height="39" viewBox="0 0 31 39" fill="none" xmlns="http://www.w3.org/2000/svg">
<path d="M0 1.56C0 0.698436 0.693959 0 1.55 0H29.45C30.306 0 31 0.698436 31 1.56V7.8H0V1.56Z" fill="#2F2F2F"/>
<path d="M0 15.6H10.85V23.4H0V15.6Z" fill="#2F2F2F"/>
<path d="M0 31.2H9.3V39H1.55C0.693959 39 0 38.3016 0 37.44V31.2Z" fill="#2F2F2F"/>
<path d="M10.85 15.6H20.15V23.4H12.4C11.544 23.4 11.625 23.4 10.85 23.4V15.6Z" fill="#2F2F2F"/>
<path d="M0 7.8H9.3V15.6L0 7.8Z" fill="#2F2F2F"/>
<path d="M0 23.4H9.3V31.2L0 23.4Z" fill="#2F2F2F"/>
</svg>
