<svg width="60" height="40" viewBox="0 0 60 40" fill="none" xmlns="http://www.w3.org/2000/svg">
<path d="M0 5C0 2.23858 2.23858 0 5 0H55C57.7614 0 60 2.23858 60 5V35C60 37.7614 57.7614 40 55 40H5C2.23858 40 0 37.7614 0 35V5Z" fill="#33363D"/>
<path d="M36.3343 8.30131L23.5547 8.28125L23.8214 31.7015L36.601 31.7215L36.3343 8.30131Z" fill="#CECECE"/>
<path d="M24.33 20.0375C24.2754 15.2742 26.4287 11.0529 29.7815 8.32455C27.2716 6.33247 24.1184 5.12632 20.6936 5.1209C12.5799 5.10805 6.092 11.7662 6.18641 20.0088C6.28081 28.2513 12.9215 34.9303 21.0351 34.9431C24.46 34.9485 27.5857 33.7523 30.05 31.7681C26.6351 29.0705 24.3845 24.8008 24.33 20.0375Z" fill="#B3B3B3"/>
<path d="M53.947 19.9877C54.0414 28.2303 47.5535 34.8885 39.4398 34.8756C36.015 34.8702 32.8618 33.664 30.3519 31.672C33.7455 28.9437 35.858 24.7223 35.8034 19.959C35.7489 15.1957 33.4988 10.9674 30.0834 8.22839C32.5477 6.24418 35.6734 5.04797 39.0983 5.05339C47.2119 5.06624 53.8531 11.7866 53.947 19.9877Z" fill="#E3E2E2"/>
</svg>
