<svg width="577" height="788" viewBox="0 0 577 788" fill="none" xmlns="http://www.w3.org/2000/svg">
<path d="M229.727 567.307C223.812 567.307 218.637 565.089 214.2 560.653C209.764 556.217 207.546 551.041 207.546 545.127C207.546 539.951 207.546 534.776 207.546 529.6C207.546 524.425 207.546 519.25 207.546 514.074C211.243 486.719 219.376 462.32 231.945 440.879C245.253 418.699 260.409 398.367 277.414 379.884C295.158 361.4 312.533 344.395 329.538 328.869C346.543 312.604 360.96 296.338 372.789 280.073C384.619 263.807 390.903 247.542 391.642 231.276C393.86 212.053 390.164 196.157 380.552 183.589C371.68 170.28 359.111 160.299 342.846 153.645C327.32 146.252 310.685 142.555 292.94 142.555C260.409 142.555 234.163 150.688 214.2 166.953C194.978 182.48 181.669 206.508 174.276 239.039C171.319 247.172 167.252 253.456 162.077 257.892C156.902 262.328 149.878 264.546 141.006 264.546H25.6684C19.0143 264.546 13.0996 261.959 7.92422 256.783C2.74883 251.608 0.161133 244.954 0.161133 236.821C0.900474 207.248 7.92422 178.413 21.2324 150.318C34.5405 122.223 54.1331 97.0856 80.01 74.9054C105.887 51.9858 137.309 33.8719 174.276 20.5638C211.243 7.25564 254.125 0.601563 302.921 0.601562C356.154 0.601562 400.145 7.25564 434.894 20.5638C470.382 33.8719 498.477 51.2465 519.179 72.6873C540.62 93.3889 555.776 115.939 564.648 140.337C573.52 163.996 577.217 186.546 575.738 207.987C574.999 235.342 569.084 260.11 557.994 282.291C547.643 303.732 534.705 323.694 519.179 342.177C504.392 360.661 488.496 378.775 471.491 396.519C455.226 413.524 440.439 430.898 427.131 448.642C414.562 466.387 405.32 484.87 399.406 504.093C397.927 510.008 396.448 515.923 394.969 521.837C394.23 527.013 393.491 532.558 392.751 538.472C389.055 548.084 384.988 555.477 380.552 560.653C376.116 565.089 369.462 567.307 360.59 567.307H229.727ZM229.727 788C221.594 788 214.94 785.413 209.764 780.237C204.589 775.062 202.001 768.408 202.001 760.275V649.374C202.001 641.98 204.589 635.696 209.764 630.52C214.94 624.606 221.594 621.648 229.727 621.648H353.936C361.329 621.648 367.614 624.606 372.789 630.52C378.704 635.696 381.661 641.98 381.661 649.374V760.275C381.661 768.408 378.704 775.062 372.789 780.237C367.614 785.413 361.329 788 353.936 788H229.727Z" fill="url(#paint0_linear_4021_32)"/>
<defs>
<linearGradient id="paint0_linear_4021_32" x1="290" y1="-163" x2="290" y2="979" gradientUnits="userSpaceOnUse">
<stop stop-color="#DF83FF"/>
<stop offset="0.47" stop-color="#FF7A92"/>
<stop offset="1" stop-color="#FB4B4B"/>
</linearGradient>
</defs>
</svg>
