<svg width="60" height="40" viewBox="0 0 60 40" fill="none" xmlns="http://www.w3.org/2000/svg">
<rect width="60" height="40" rx="4.87432" fill="#33363D"/>
<path fill-rule="evenodd" clip-rule="evenodd" d="M39.4476 13C38.5194 13 37.7656 13.7535 37.7656 14.6823C37.7656 15.6117 38.5194 16.3635 39.4476 16.3635C40.3774 16.3635 41.1306 15.6117 41.1306 14.6823C41.1306 13.7535 40.3774 13 39.4476 13ZM15.1896 18.6366C14.7583 18.6087 13.7591 18.5437 13.7591 17.6449C13.7591 16.5604 15.1967 16.5604 15.7362 16.5604C16.6851 16.5604 17.9128 16.8401 18.7907 17.1029C18.7907 17.1029 19.2794 17.2756 19.6954 17.4515L19.7342 17.4624V14.4918L19.6822 14.4759C18.6459 14.1137 17.4428 13.7656 15.2109 13.7656C11.3633 13.7656 10 16.0052 10 17.9258C10 19.0316 10.4745 21.6368 14.8797 21.9368L14.8837 21.937C15.2612 21.9601 16.2457 22.0204 16.2457 22.9459C16.2457 23.713 15.4339 24.1643 14.069 24.1643C12.5735 24.1643 11.1217 23.7841 10.2405 23.4218V26.4805C11.56 26.8274 13.0479 26.999 14.7917 26.999C18.5524 26.999 20.2382 24.8796 20.2382 22.7782C20.2382 20.3965 18.3529 18.8486 15.1896 18.6366ZM26.5426 17.3163C26.5499 17.2971 26.5557 17.282 26.5599 17.2712H30.5885C30.4737 17.6378 29.7549 19.8501 28.1162 21.9275C28.1162 21.9275 29.9413 25.1243 30.3584 26.8586H26.1401C26.1401 26.8586 25.6361 24.5561 24.6162 23.0262V26.8586H21.0938V14.4623L24.6162 13.7656V20.6052C25.8643 19.0963 26.4204 17.637 26.5426 17.3163ZM47.5859 26.8586V14.3759L50.9996 13.7656V26.8586H47.5859ZM35.8181 17.1438C32.6646 17.2454 31.0625 18.6605 31.0625 21.4733V26.8606H34.504V22.4666C34.504 20.7832 34.7248 20.0614 36.7238 19.9926V17.1935C36.3877 17.1219 35.8181 17.1438 35.8181 17.1438ZM37.7422 26.8577V17.2812H41.1553V26.8577H37.7422ZM42.6094 14.3759L46.0208 13.7656V26.8586H42.6094V14.3759Z" fill="#D3D3D3"/>
</svg>
