<svg width="60" height="40" viewBox="0 0 60 40" fill="none" xmlns="http://www.w3.org/2000/svg">
<path d="M0 5C0 2.23858 2.23858 0 5 0H55C57.7614 0 60 2.23858 60 5V35C60 37.7614 57.7614 40 55 40H5C2.23858 40 0 37.7614 0 35V5Z" fill="#33363D"/>
<path d="M50.7037 12.2266H47.6234C46.6921 12.2266 45.9758 12.5313 45.546 13.5218L39.6719 27.7694H43.8267C43.8267 27.7694 44.5431 25.8647 44.6864 25.4075C45.1162 25.4075 49.1994 25.4075 49.7725 25.4075C49.9157 25.9408 50.2739 27.6932 50.2739 27.6932H53.9989L50.7037 12.2266ZM45.8325 22.2075C46.1907 21.2932 47.4085 17.8647 47.4085 17.8647C47.4085 17.9408 47.7667 16.9504 47.9099 16.417L48.1965 17.7885C48.1965 17.7885 48.9845 21.5218 49.1277 22.2837H45.8325V22.2075Z" fill="#D3D3D3"/>
<path d="M39.9603 22.6667C39.9603 25.8667 37.2382 28 33.0117 28C31.2208 28 29.5016 27.619 28.5703 27.1619L29.1434 23.6571L29.6448 23.8857C30.9343 24.4952 31.7939 24.7238 33.3699 24.7238C34.516 24.7238 35.7339 24.2667 35.7339 23.2C35.7339 22.5143 35.2324 22.0571 33.6564 21.2952C32.1521 20.5333 30.1463 19.3143 30.1463 17.1048C30.1463 14.0571 32.9401 12 36.88 12C38.3844 12 39.6738 12.3048 40.4618 12.6857L39.8887 16.0381L39.6022 15.7333C38.8858 15.4286 37.9545 15.1238 36.5935 15.1238C35.0891 15.2 34.3728 15.8857 34.3728 16.4952C34.3728 17.181 35.2324 17.7143 36.5935 18.4C38.8858 19.5429 39.9603 20.8381 39.9603 22.6667Z" fill="#D3D3D3"/>
<path d="M5 12.3829L5.07164 12.0781H11.2323C12.0919 12.0781 12.7366 12.3829 12.9515 13.3734L14.3126 20.2305C12.9515 16.5734 9.79957 13.6019 5 12.3829Z" fill="#D3D3D3"/>
<path d="M22.9819 12.2285L16.7497 27.6952H12.5232L8.94141 14.7428C11.5203 16.4952 13.6693 19.2381 14.4573 21.1428L14.8871 22.7428L18.7555 12.1523H22.9819V12.2285Z" fill="#D3D3D3"/>
<path d="M24.6322 12.1523H28.5722L26.0649 27.6952H22.125L24.6322 12.1523Z" fill="#D3D3D3"/>
</svg>
