<svg width="79" height="79" viewBox="0 0 79 79" fill="none" xmlns="http://www.w3.org/2000/svg">
<path fill-rule="evenodd" clip-rule="evenodd" d="M77.3489 20.4793C76.4405 17.0882 73.7639 14.4167 70.3648 13.5102C64.204 11.8633 39.4997 11.8633 39.4997 11.8633C39.4997 11.8633 14.796 11.8633 8.63515 13.5102C5.2361 14.4167 2.55953 17.0882 1.65108 20.4793C0 26.6275 0 39.4535 0 39.4535C0 39.4535 0 52.2801 1.65108 58.4277C2.55953 61.8188 5.2361 64.491 8.63515 65.3968C14.796 67.0443 39.4997 67.0443 39.4997 67.0443C39.4997 67.0443 64.204 67.0443 70.3648 65.3968C73.7639 64.491 76.4405 61.8188 77.3489 58.4277C79 52.2801 79 39.4535 79 39.4535C79 39.4535 79 26.6275 77.3489 20.4793Z" fill="#F54848"/>
<path fill-rule="evenodd" clip-rule="evenodd" d="M31.6104 51.2745L52.134 39.4504L31.6104 27.625V51.2745Z" fill="#F4F4F4"/>
</svg>
